<svg width="12" height="20" fill="none" xmlns="http://www.w3.org/2000/svg"><path fill-rule="evenodd" clip-rule="evenodd" d="M5.584 14.91a.31.31 0 01-.084-.218.328.328 0 01.084-.218L8.81 11 5.584 7.526a.31.31 0 01-.084-.218.329.329 0 01.084-.218.268.268 0 01.404 0l3.428 3.692A.31.31 0 019.5 11a.328.328 0 01-.084.218L5.988 14.91a.268.268 0 01-.404 0z" fill="#003154"/><path fill-rule="evenodd" clip-rule="evenodd" d="M5.584 14.91a.31.31 0 01-.084-.218.328.328 0 01.084-.218L8.81 11 5.584 7.526a.31.31 0 01-.084-.218.329.329 0 01.084-.218.268.268 0 01.404 0l3.428 3.692A.31.31 0 019.5 11a.328.328 0 01-.084.218L5.988 14.91a.268.268 0 01-.404 0z" fill="#003154"/><path clip-rule="evenodd" d="M5.584 14.91a.31.31 0 01-.084-.218.328.328 0 01.084-.218L8.81 11 5.584 7.526a.31.31 0 01-.084-.218.329.329 0 01.084-.218.268.268 0 01.404 0l3.428 3.692A.31.31 0 019.5 11a.328.328 0 01-.084.218L5.988 14.91a.268.268 0 01-.404 0z" stroke="#003154" stroke-width=".5"/><path clip-rule="evenodd" d="M5.584 14.91a.31.31 0 01-.084-.218.328.328 0 01.084-.218L8.81 11 5.584 7.526a.31.31 0 01-.084-.218.329.329 0 01.084-.218.268.268 0 01.404 0l3.428 3.692A.31.31 0 019.5 11a.328.328 0 01-.084.218L5.988 14.91a.268.268 0 01-.404 0z" stroke="#003154" stroke-width=".5"/></svg>