<svg width="85" height="80" fill="none" xmlns="http://www.w3.org/2000/svg"><path fill-rule="evenodd" clip-rule="evenodd" d="M70.745 14.992c-6.17-6.54-18.231-6.932-24.81.54l-3.517 3.994-3.757-3.766c-7.608-7.624-19.04-6.81-23.686-.99l-.061.077-.064.075c-5.878 6.797-5.7 17.475 1.243 23.562l.143.126 26.531 27.1 26.475-27.043.08-.075c6.65-6.22 7.097-16.96 1.423-23.6zM42.011 5.554C52.966-2.966 69.157-1.38 78.108 8.23l.062.068.06.07c9.22 10.66 8.523 27.523-2.01 37.46L42.767 80l-33.4-34.117C-1.95 35.81-1.76 18.927 7.24 8.441c8.22-10.2 23.83-10.625 34.772-2.887z" fill="#174463"/></svg>