<svg width="17" height="20" fill="none" xmlns="http://www.w3.org/2000/svg"><path d="M2 4a1 1 0 00-1 1v10a1 1 0 001 1h13a1 1 0 001-1V5a1 1 0 00-1-1H2zm5.9 7.175a1.005 1.005 0 001.2 0l.733-.55L15 14.5v.5H2v-.5l5.167-3.875.733.55zm.6-.8L2 5.5V5h13v.5l-6.5 4.875zM2 6.75L6.333 10 2 13.25v-6.5zm13 6.5L10.667 10 15 6.75v6.5z" fill="#003154"/><path fill-rule="evenodd" clip-rule="evenodd" d="M2 4.1a.9.9 0 00-.9.9v10a.9.9 0 00.9.9h13a.9.9 0 00.9-.9V5a.9.9 0 00-.9-.9H2zM.9 5A1.1 1.1 0 012 3.9h13A1.1 1.1 0 0116.1 5v10a1.1 1.1 0 01-1.1 1.1H2A1.1 1.1 0 01.9 15V5zm1-.1h13.2v.65L8.5 10.5 1.9 5.55V4.9zm.2.2v.35l6.4 4.8 6.4-4.8V5.1H2.1zm-.2 1.45L6.5 10l-4.6 3.45v-6.9zm13.2 0v6.9L10.5 10l4.6-3.45zm-13 .4v6.1L6.167 10 2.1 6.95zM10.833 10l4.067 3.05v-6.1L10.833 10zm-3.666.5l.793.595a.906.906 0 001.08 0l.793-.595 5.267 3.95v.65H1.9v-.65l5.267-3.95zm0 .25L2.1 14.55v.35h12.8v-.35l-5.067-3.8-.673.505a1.106 1.106 0 01-1.32 0l-.673-.505z" fill="#003154"/></svg>