<svg width="20" height="20" fill="none" xmlns="http://www.w3.org/2000/svg"><path d="M8.784 1.25c-4.152 0-7.534 3.382-7.534 7.534 0 4.153 3.382 7.535 7.534 7.535a7.498 7.498 0 004.785-1.717h.008l3.926 3.934a.731.731 0 001.033 0 .722.722 0 000-1.025l-3.941-3.934v-.008a7.504 7.504 0 001.724-4.785c0-4.152-3.382-7.534-7.535-7.534zm0 1.458a6.065 6.065 0 016.076 6.076 6.065 6.065 0 01-6.076 6.076 6.065 6.065 0 01-6.076-6.076 6.065 6.065 0 016.076-6.076z" fill="#1E1E1E"/><path fill-rule="evenodd" clip-rule="evenodd" d="M1.188 8.784c0-4.187 3.41-7.597 7.596-7.597h.074c4.153.04 7.523 3.435 7.523 7.597a7.565 7.565 0 01-1.706 4.785l3.906 3.898a.785.785 0 010 1.114.794.794 0 01-1.122 0l-3.89-3.898a7.56 7.56 0 01-4.785 1.698c-4.187 0-7.597-3.41-7.597-7.597zM8.75 1.313c-4.103.018-7.438 3.365-7.438 7.471 0 4.118 3.353 7.472 7.471 7.472 1.8 0 3.454-.637 4.745-1.702l.018-.014h.056l3.945 3.952c.26.26.684.26.944 0a.66.66 0 000-.937l-3.974-3.966.014-.027.001-.005a.063.063 0 01.013-.027 7.442 7.442 0 001.71-4.746c0-4.118-3.354-7.471-7.472-7.471H8.75zm.033 1.458A6.003 6.003 0 002.77 8.784a6.003 6.003 0 006.013 6.014 6.003 6.003 0 006.014-6.014 6.003 6.003 0 00-6.014-6.013zM2.646 8.784a6.128 6.128 0 016.138-6.138 6.128 6.128 0 016.139 6.138 6.128 6.128 0 01-6.139 6.139 6.128 6.128 0 01-6.138-6.139z" fill="#1E1E1E"/></svg>