<svg width="13" height="22" fill="none" xmlns="http://www.w3.org/2000/svg"><path fill-rule="evenodd" clip-rule="evenodd" d="M3.02 12.084A.31.31 0 013.236 12a.328.328 0 01.218.084l3.474 3.226 3.474-3.226A.313.313 0 0110.62 12a.329.329 0 01.217.084.27.27 0 010 .405l-3.691 3.427a.31.31 0 01-.218.084.328.328 0 01-.218-.084l-3.692-3.428a.285.285 0 01-.067-.092.268.268 0 01.067-.312z" fill="#003154"/><path fill-rule="evenodd" clip-rule="evenodd" d="M3.02 12.084A.31.31 0 013.236 12a.328.328 0 01.218.084l3.474 3.226 3.474-3.226A.313.313 0 0110.62 12a.329.329 0 01.217.084.27.27 0 010 .405l-3.691 3.427a.31.31 0 01-.218.084.328.328 0 01-.218-.084l-3.692-3.428a.285.285 0 01-.067-.092.268.268 0 01.067-.312z" fill="#003154"/><path clip-rule="evenodd" d="M3.02 12.084A.31.31 0 013.236 12a.328.328 0 01.218.084l3.474 3.226 3.474-3.226A.313.313 0 0110.62 12a.329.329 0 01.217.084.27.27 0 010 .405l-3.691 3.427a.31.31 0 01-.218.084.328.328 0 01-.218-.084l-3.692-3.428a.285.285 0 01-.067-.092.268.268 0 01.067-.312z" stroke="#003154" stroke-width=".5"/><path clip-rule="evenodd" d="M3.02 12.084A.31.31 0 013.236 12a.328.328 0 01.218.084l3.474 3.226 3.474-3.226A.313.313 0 0110.62 12a.329.329 0 01.217.084.27.27 0 010 .405l-3.691 3.427a.31.31 0 01-.218.084.328.328 0 01-.218-.084l-3.692-3.428a.285.285 0 01-.067-.092.268.268 0 01.067-.312z" stroke="#003154" stroke-width=".5"/></svg>