<svg width="40" height="41" fill="none" xmlns="http://www.w3.org/2000/svg"><path fill-rule="evenodd" clip-rule="evenodd" d="M24.724.617a4.38 4.38 0 00-3.22 3.31c-.09.427-.11 2.31-.111 10.937l-.001 10.421-.465.316a7.985 7.985 0 00-3.187 4.512c-.268 1.005-.303 2.734-.078 3.784.674 3.138 2.966 5.595 5.96 6.387.68.18.945.208 2.033.215.966.006 1.393-.025 1.87-.137 1.663-.39 2.868-1.075 4.055-2.306 2.697-2.798 3.148-7.152 1.064-10.269a8.55 8.55 0 00-2.049-2.138L30 25.21l-.02-10.696-.021-10.696-.176-.467C29.006 1.294 26.817.11 24.724.617zm1.75 1.563c.82.244 1.51.877 1.8 1.648.156.42.159.563.163 11.16.003 8.104.027 10.8.098 11.002.073.213.216.343.68.62.706.423 1.882 1.58 2.257 2.219.615 1.049.892 2.087.891 3.347 0 1.79-.63 3.426-1.81 4.706-1.185 1.287-2.678 1.98-4.467 2.075-4.217.225-7.626-3.558-6.958-7.72.117-.733.472-1.71.855-2.355.446-.75 1.296-1.628 2.089-2.156.359-.238.704-.508.768-.6.102-.144.116-1.532.116-10.898 0-10.219.007-10.755.145-11.197.456-1.467 1.935-2.278 3.373-1.85zm-16.152.768c-1.877.315-3.394 1.12-4.701 2.495-3.05 3.207-3.05 8.091 0 11.299 1.72 1.808 4.064 2.737 6.486 2.57 3.557-.245 6.533-2.72 7.464-6.209.178-.666.202-.912.202-2.01 0-1.1-.024-1.345-.202-2.012-.957-3.586-4.033-6.07-7.684-6.203-.586-.022-1.175.005-1.565.07zm2.855 1.657c.609.155 1.643.623 2.165.98 1.278.873 2.288 2.306 2.698 3.83.23.853.25 2.42.042 3.203-.555 2.086-1.848 3.652-3.743 4.53-1.024.475-1.58.59-2.805.583-.904-.006-1.155-.037-1.744-.214-1.95-.586-3.4-1.81-4.237-3.576-.46-.972-.613-1.682-.613-2.849 0-.798.036-1.152.17-1.643.713-2.637 2.827-4.544 5.51-4.972.582-.093 1.962-.024 2.557.128zm18.837-.082c-.447.247-.518.843-.145 1.216l.228.23h1.81c1.994 0 2.168-.035 2.345-.461a.786.786 0 00-.202-.88c-.195-.183-.222-.186-2.01-.204-1.494-.015-1.85.002-2.026.1zM9.526 6.083c-.299.13-.417.328-.417.703 0 .227.165.528.865 1.575.8 1.196.863 1.318.841 1.621-.023.322-.03.328-.337.351-.283.02-.436-.059-1.607-.828-.711-.467-1.377-.872-1.479-.899-.525-.137-1.042.462-.864 1.002.07.21.255.376.924.826.46.31.866.591.904.624.037.033-.34.33-.838.66-.731.485-.92.65-.99.86-.188.57.35 1.147.918.984.128-.036.765-.422 1.416-.857 1.107-.74 1.207-.791 1.575-.791h.394v.314c0 .27-.122.497-.861 1.602-.718 1.075-.86 1.337-.86 1.585 0 .563.45.897.976.724.233-.078.375-.234.836-.927a29.7 29.7 0 01.608-.893c.03-.033.326.344.66.839.526.78.644.91.901.987.393.118.755-.06.919-.45.158-.38.106-.5-.825-1.893-.71-1.062-.79-1.216-.79-1.534v-.354h.372c.342 0 .471.066 1.584.808.667.444 1.297.83 1.4.856.275.07.683-.13.824-.403.272-.525.103-.785-.967-1.493-.476-.314-.866-.58-.866-.59 0-.01.39-.275.866-.59 1.07-.708 1.239-.968.967-1.493-.141-.274-.55-.473-.823-.402-.104.027-.763.43-1.465.896-1.08.717-1.323.846-1.584.846h-.308v-.393c0-.368.05-.468.79-1.573.931-1.393.983-1.513.825-1.893-.163-.388-.527-.568-.915-.452-.252.076-.376.211-.902.988-.335.495-.633.873-.663.84-.03-.033-.302-.434-.607-.891-.427-.643-.61-.852-.804-.92-.304-.105-.286-.106-.593.027zm22.552 1.57c-.321.167-.433.343-.436.688-.001.228.052.353.227.528l.228.228h1.065c1.217 0 1.393-.062 1.537-.543.115-.384-.064-.752-.44-.91-.377-.157-1.875-.152-2.181.008zm-6.802 2.394c-.37.214-.364.076-.364 8.907 0 6.572-.02 8.303-.098 8.324-1.234.329-1.956.711-2.68 1.422-.566.555-.983 1.23-1.271 2.06-.18.516-.207.717-.205 1.533.001.804.031 1.03.21 1.57a5.162 5.162 0 004.488 3.522c1.994.167 4.02-.997 4.917-2.823.375-.762.512-1.36.515-2.238.004-1.467-.445-2.547-1.492-3.592-.818-.816-1.509-1.198-2.604-1.44l-.215-.048V10.44l-.203-.24c-.167-.2-.259-.24-.528-.239-.179.002-.39.04-.47.087zm6.567.934c-.292.347-.278.753.037 1.055l.24.23 1.657.024c1.934.029 2.197-.021 2.432-.46.178-.331.13-.623-.149-.9l-.188-.19h-3.827l-.203.241zm.026 3.117c-.411.411-.263 1.052.292 1.263.308.117 1.79.09 2.097-.038.377-.158.556-.527.441-.91-.144-.481-.32-.543-1.537-.543h-1.065l-.228.228zm0 3.13c-.26.26-.313.712-.115.994.222.317.469.351 2.332.326 1.736-.023 1.77-.027 1.964-.21a.955.955 0 00.246-.407c.063-.288-.145-.727-.4-.843-.128-.059-.816-.09-1.997-.09h-1.802l-.228.23zM26.67 28.903c.538.138 1.072.458 1.528.914 2.034 2.038.909 5.481-1.951 5.971-1.054.181-2.229-.207-3.019-.997-1.32-1.32-1.383-3.486-.14-4.816.994-1.062 2.206-1.425 3.582-1.072z" fill="#003154"/></svg>