<svg width="40" height="41" fill="none" xmlns="http://www.w3.org/2000/svg"><path fill-rule="evenodd" clip-rule="evenodd" d="M16.616.552c-4.51.5-8.39 2.381-11.46 5.558-2.283 2.364-3.814 5.095-4.61 8.23-.433 1.703-.548 2.677-.546 4.627.002 1.931.11 2.836.54 4.536 1.803 7.14 7.789 12.53 15.218 13.702 1.252.197 4.063.197 5.277-.001 1.033-.169 2.25-.458 2.997-.712l.548-.186.297.482c.4.648 1.472 1.747 2.188 2.241 4.136 2.86 9.82 1.402 12.046-3.09.242-.487.516-1.198.634-1.642.184-.693.207-.925.205-2.033-.001-1.095-.027-1.347-.204-2.011a8.92 8.92 0 00-1.23-2.676c-.494-.715-1.593-1.787-2.242-2.187l-.482-.297.154-.443c.25-.72.604-2.245.745-3.215.164-1.123.184-3.714.038-4.776-.866-6.273-4.613-11.555-10.113-14.256C24.8 1.512 22.97.937 21.073.663 20.011.507 17.556.447 16.616.551zm3.374 1.56A16.959 16.959 0 0131.6 8.41c3.4 4.274 4.538 9.895 3.056 15.094-.282.988-.207.945-1.224.703-.933-.223-2.637-.194-3.603.061-2.311.61-3.977 1.876-5.287 4.016-.083.136-.135.104-.654-.4a11.624 11.624 0 01-3.137-5.343l-.174-.65.323-.323.323-.323 2.605.446c2.802.48 3.575.537 4.406.326 1.796-.454 3.253-2.002 3.596-3.819.17-.894.165-4.63-.005-5.205-.242-.812-1.057-1.416-1.912-1.416-.627 0-1.137.264-1.608.83-1.782 2.144-3.791 3.487-6.201 4.145l-.73.199-.315-.339-.316-.339.442-2.62c.472-2.804.525-3.528.318-4.344-.285-1.12-1.093-2.264-2.049-2.898a6.285 6.285 0 00-1.114-.536l-.668-.24H12.51l-.42.232a1.997 1.997 0 00-.84 2.593c.14.3.35.536.84.946.902.754 1.82 1.744 2.353 2.536.573.853 1.25 2.268 1.494 3.119.33 1.15.332 1.094-.063 1.43l-.347.296-2.565-.444c-2.794-.484-3.535-.537-4.393-.315-1.284.334-2.594 1.395-3.165 2.563-.48.986-.533 1.407-.506 4.092.023 2.237.032 2.366.193 2.664.39.72.993 1.088 1.788 1.092.759.004 1.184-.223 1.768-.94 1.494-1.835 3.461-3.202 5.544-3.853 1.258-.393 1.215-.393 1.574-.004l.312.338-.446 2.583c-.489 2.827-.54 3.55-.31 4.42.426 1.613 1.734 2.952 3.406 3.487.355.113.811.143 2.596.17l2.166.035.05.442c.063.579.24 1.482.343 1.75l.08.214-.642.195c-1.697.515-2.917.69-4.866.697-1.741.006-2.72-.11-4.235-.5-5.57-1.436-10.052-5.634-11.835-11.086-1.747-5.342-.802-10.97 2.602-15.497.65-.864 2.031-2.285 2.847-2.928 3.474-2.742 7.902-4.07 12.157-3.648zm-2.394 4.969c.964.25 1.733.897 2.175 1.833.384.813.375 1.396-.06 3.912-.197 1.14-.377 2.162-.4 2.271-.04.198-.046.199-.83.19l-.789-.008-.25-.816c-.584-1.902-1.447-3.456-2.722-4.905-.446-.506-.768-.81-1.808-1.711-.313-.272-.364-.514-.156-.744.12-.132.295-.143 2.252-.143 1.659 0 2.224.026 2.588.12zm12.664 6.232c.103.146.122.492.122 2.186 0 1.182-.036 2.184-.087 2.427a3.375 3.375 0 01-1.82 2.333c-.86.422-1.376.413-4.181-.073a405.114 405.114 0 00-2.316-.398c-.011 0 .01-.185.047-.41.037-.227.046-.59.02-.808l-.047-.397.457-.101c1.158-.258 2.674-.944 3.925-1.777.946-.63 2.244-1.814 2.919-2.662.317-.4.435-.494.616-.494.142 0 .268.063.345.174zm-11.227 3.625c1.503.446 1.951 2.456.784 3.51-.428.387-.81.533-1.403.54-.632.007-1.105-.203-1.552-.688-.314-.341-.56-.943-.56-1.373 0-.807.638-1.692 1.41-1.959.527-.181.79-.188 1.322-.03zm-6.602.705c1.118.19 2.105.36 2.193.381.148.035.159.093.15.836l-.008.798-.62.172c-1.798.5-3.387 1.35-4.946 2.648-.594.494-1.024.944-1.932 2.022-.214.255-.448.275-.664.059-.149-.149-.157-.26-.157-2.252 0-2.75.109-3.189 1.007-4.085.7-.698 1.645-1.054 2.552-.962.215.022 1.306.194 2.425.383zm6.316 4.916c.275-.036.379-.021.402.057.927 3.161 2.091 5.07 4.224 6.93l.461.403-.1.473-.1.473h-1.902c-1.098 0-2.077-.037-2.316-.088-1.735-.364-2.893-2.002-2.644-3.738.09-.633.6-3.652.71-4.2l.078-.398.408.068c.224.037.575.046.779.02zm14.651 3.252c3.44.877 5.606 4.326 4.892 7.787-.287 1.39-.901 2.49-1.95 3.492-2.593 2.478-6.568 2.473-9.194-.012-.871-.825-1.529-1.947-1.857-3.172-.234-.87-.237-2.404-.008-3.253.715-2.646 2.85-4.586 5.495-4.99.699-.108 1.88-.04 2.622.148zm-3.694 1.443c-.3.13-.417.33-.417.704 0 .227.165.527.864 1.574.8 1.196.863 1.319.841 1.622-.023.324-.027.328-.351.351-.303.022-.425-.041-1.621-.84-1.08-.723-1.343-.865-1.591-.865-.376 0-.61.162-.721.502-.158.478.014.713 1.001 1.366.48.317.855.601.837.632-.02.03-.405.299-.858.596-.95.624-1.132.87-.98 1.329.05.15.18.332.289.403.407.267.632.187 1.972-.706 1.178-.785 1.28-.837 1.647-.837h.392v.311c0 .266-.127.502-.86 1.609-.735 1.106-.861 1.342-.861 1.608 0 .541.529.898 1.026.691.175-.072.407-.347.834-.988.325-.49.616-.862.646-.828.03.033.303.434.606.89.61.916.84 1.087 1.289.958.326-.093.632-.534.574-.827-.023-.117-.413-.767-.866-1.446-.758-1.135-.824-1.264-.824-1.606v-.372h.372c.342 0 .47.066 1.606.823.679.454 1.33.843 1.447.867.292.058.733-.248.826-.575.13-.448-.042-.679-.958-1.288a28.606 28.606 0 01-.89-.606c-.033-.03.34-.321.828-.646.641-.428.917-.66.989-.834A.737.737 0 0036.1 29.8c-.265 0-.502.126-1.608.86s-1.343.86-1.609.86h-.311v-.391c0-.367.052-.47.837-1.648.893-1.34.973-1.565.707-1.972a.887.887 0 00-.404-.289c-.458-.15-.705.031-1.329.98-.297.453-.565.84-.596.858-.03.02-.315-.357-.632-.836-.427-.646-.64-.898-.828-.976-.305-.127-.311-.127-.623.008z" fill="#003154"/></svg>