<svg width="40" height="41" fill="none" xmlns="http://www.w3.org/2000/svg"><path fill-rule="evenodd" clip-rule="evenodd" d="M16.89.599c-.268.129-1.383 1.866-2.058 3.204-.776 1.542-.886 2.529-.393 3.53.32.649.853 1.179 1.496 1.487.47.225.572.244 1.33.244.725 0 .872-.024 1.264-.208 1.075-.504 1.863-1.69 1.863-2.803 0-.77-.68-2.341-1.784-4.118C17.756.565 17.452.328 16.889.6zm.938 3.089c.593 1.039 1 2 1 2.361 0 .306-.189.767-.414 1.008-.52.557-1.502.65-2.065.197-.733-.59-.82-1.254-.308-2.34.373-.788 1.137-2.145 1.209-2.145.03 0 .29.414.578.919zm11.293 2.381c-.512.186-2.512 3.738-2.747 4.877-.421 2.049 1.428 3.967 3.502 3.633 1.767-.285 2.946-1.935 2.597-3.633-.145-.706-1.06-2.554-1.902-3.845-.496-.76-.669-.964-.875-1.036-.295-.103-.28-.104-.575.004zm-19.618.78c-.241.087-1.126 1.315-2.694 3.74C2.537 17.191.18 22.178.009 24.975c-.053.89.121 2.214.416 3.146a9.882 9.882 0 006.272 6.403c1.082.365 1.87.486 3.233.492l1.227.007.395.657c.55.915.934 1.392 1.727 2.147 1.37 1.303 2.936 2.12 4.846 2.526.909.193 2.835.195 3.726.004 1.99-.426 3.517-1.231 4.956-2.612l.756-.726.424.23c.233.126.792.352 1.243.503 2.433.813 5.088.428 7.223-1.048 1.595-1.103 2.792-2.816 3.306-4.733.185-.691.209-.922.209-2.031 0-1.11-.024-1.34-.21-2.031a8.37 8.37 0 00-5.957-5.955c-.673-.177-.948-.207-1.993-.213-1.033-.006-1.314.02-1.91.175-.811.212-1.747.593-2.31.94a4.08 4.08 0 01-.426.242c-.017 0-.232-.375-.476-.833-.611-1.144-1.606-2.838-2.68-4.562-1.247-2.001-3.367-5.143-3.564-5.281-.09-.063-.3-.114-.468-.114-.42 0-.541.143-2.118 2.519l-1.325 1.995-.849-1.483c-1.09-1.906-2.497-4.15-4.076-6.502-1.008-1.501-1.304-1.889-1.51-1.974-.29-.122-.3-.122-.593-.016zm20.582 2.488c.921 1.648 1.063 2.24.697 2.904-.21.38-.573.655-1.028.777-1.041.28-2.126-.79-1.85-1.827.11-.414.655-1.547 1.134-2.357.428-.723.337-.767 1.047.503zm-19.173 1.271c1.728 2.627 3.535 5.619 4.431 7.337l.228.436-.47.776c-2.084 3.435-3.65 6.588-4.35 8.752-.462 1.433-.55 2.016-.5 3.318.024.626.1 1.363.168 1.638.069.275.103.521.077.547-.098.098-1.662.028-2.302-.102a8.05 8.05 0 01-4.023-2.094c-1.185-1.118-1.957-2.41-2.364-3.957-.163-.618-.202-.954-.21-1.814-.008-.932.016-1.146.206-1.829.792-2.834 3.234-7.474 6.724-12.774.687-1.042 1.259-1.896 1.27-1.896.013 0 .514.748 1.115 1.662zm10.165 5.434c1.788 2.718 2.954 4.635 4.17 6.857l.683 1.247-.404.446c-.804.89-1.518 2.335-1.822 3.685-.197.872-.18 2.571.035 3.44.377 1.53 1.005 2.726 1.98 3.77l.562.601-.383.394c-1.631 1.673-4.022 2.599-6.366 2.464-2.042-.118-3.848-.93-5.324-2.396-1.232-1.223-1.952-2.565-2.303-4.296-.193-.955-.127-2.389.154-3.33.685-2.292 2.57-6.057 4.991-9.969 1.009-1.629 2.881-4.457 2.952-4.457.033 0 .517.695 1.075 1.544zm12.256 7.407c1.673.44 3.059 1.418 3.99 2.818 2.278 3.42.969 7.984-2.79 9.727-1.012.47-1.576.586-2.803.58-.913-.003-1.15-.032-1.755-.214-2.324-.7-4.056-2.473-4.668-4.777-.234-.886-.233-2.405.003-3.284.701-2.615 2.742-4.473 5.456-4.967.533-.097 2.01-.03 2.567.117zM29.68 24.94c-.268.146-.374.34-.374.69 0 .217.176.538.86 1.57.734 1.106.86 1.342.86 1.608v.311h-.39c-.368 0-.47-.052-1.636-.829-1.328-.885-1.583-.976-1.984-.714a.886.886 0 00-.288.403c-.151.459.03.705.98 1.328.453.298.84.57.862.604.021.034-.366.33-.86.658-.726.482-.914.646-.984.857-.105.318.05.758.316.9.416.223.653.132 2.026-.78 1.183-.787 1.345-.871 1.617-.849.295.024.303.033.326.353.022.303-.04.425-.84 1.62-.7 1.047-.865 1.347-.865 1.574 0 .384.12.576.443.71.503.21.732.061 1.369-.896.305-.459.582-.864.615-.9.034-.038.317.314.63.781.312.467.623.891.69.943.38.29.936.133 1.154-.324.173-.362.109-.51-.828-1.91-.738-1.104-.788-1.204-.788-1.572v-.393h.307c.261 0 .503.13 1.584.846.701.465 1.36.868 1.464.895.273.071.681-.128.823-.402.271-.525.103-.784-.97-1.494-.478-.316-.841-.6-.807-.63.034-.03.434-.303.89-.606.595-.396.857-.62.93-.795a.747.747 0 00-.254-.89c-.4-.299-.631-.218-1.982.683-1.143.763-1.272.829-1.614.829h-.372v-.354c0-.318.08-.472.79-1.533.936-1.4 1-1.548.827-1.91-.178-.374-.541-.546-.915-.434-.25.075-.368.206-.86.95-.314.475-.596.88-.627.898-.03.019-.312-.354-.626-.83-.704-1.063-.985-1.245-1.5-.966z" fill="#003154"/></svg>