<svg width="41" height="41" fill="none" xmlns="http://www.w3.org/2000/svg"><path fill-rule="evenodd" clip-rule="evenodd" d="M18.093.548c-6.106.626-11.501 3.903-14.869 9.03-5.034 7.665-4.087 18.09 2.24 24.656.568.59.782.703 1.15.615.297-.072 3.28-3.062 3.32-3.329.056-.362-.083-.635-.605-1.188-.527-.559-1.444-1.743-1.444-1.865 0-.037.333-.263.741-.503s.777-.503.821-.586a.832.832 0 00-.148-.948c-.324-.325-.625-.303-1.298.091-1.05.616-.927.615-1.212.01-.596-1.263-1.134-3.28-1.228-4.604l-.045-.64.957-.027c.937-.026.96-.03 1.145-.246a.756.756 0 00.189-.523.756.756 0 00-.189-.524c-.185-.215-.208-.22-1.145-.246l-.957-.026.045-.64c.094-1.334.615-3.277 1.213-4.53l.29-.607.743.43c.88.51 1.149.547 1.492.204a.832.832 0 00.148-.949c-.044-.082-.413-.346-.82-.586-.409-.24-.742-.456-.742-.481 0-.18 1.067-1.482 1.877-2.293.81-.81 2.114-1.877 2.293-1.877.025 0 .241.334.481.741.24.408.504.777.586.822a.833.833 0 00.949-.149c.343-.343.306-.612-.203-1.492l-.43-.743.606-.29c1.253-.598 3.196-1.119 4.53-1.213l.64-.045.026.957c.026.937.031.96.246 1.145a.81.81 0 001.047 0c.215-.184.22-.208.246-1.145l.026-.957.641.045c1.333.094 3.276.615 4.529 1.213l.607.29-.43.743c-.51.88-.547 1.149-.204 1.492a.833.833 0 00.949.149c.082-.045.346-.414.586-.822.24-.407.456-.74.482-.74.179 0 1.482 1.066 2.292 1.876.81.81 1.877 2.114 1.877 2.293 0 .025-.333.241-.741.481s-.777.504-.821.586a.832.832 0 00.148.949c.342.342.612.306 1.492-.2l.743-.427.29.604c.596 1.241 1.119 3.19 1.213 4.525l.045.64-.957.027c-.937.026-.96.031-1.145.246a.81.81 0 000 1.047c.185.215.208.22 1.145.246l.957.026-.045.641c-.049.686-.34 2.24-.438 2.34-.033.033-.303.001-.601-.072-.722-.176-2.512-.179-3.287-.004-1.69.381-3.112 1.174-4.259 2.375-.879.92-1.398 1.74-1.801 2.844-.881 2.414-.64 4.923.686 7.141.468.783 1.556 1.938 2.332 2.474 4.143 2.864 9.826 1.41 12.053-3.085.242-.489.516-1.2.634-1.643.183-.693.207-.925.205-2.034-.001-1.1-.027-1.345-.209-2.034a10.252 10.252 0 00-.641-1.657l-.435-.876.243-.689c1.642-4.65 1.396-10.164-.657-14.715-1.75-3.878-4.76-7.17-8.49-9.282-2.011-1.139-4.55-1.993-7.006-2.356-.957-.142-3.734-.205-4.694-.106zm4.615 1.676a18.408 18.408 0 0110.33 5.239 17.928 17.928 0 013.48 4.808 18.65 18.65 0 011.766 5.6c.196 1.292.198 3.94.004 5.201-.15.976-.358 1.924-.608 2.763l-.158.533-.347-.32c-.314-.29-1.404-1.047-1.601-1.112-.051-.017-.021-.264.08-.671.776-3.117.529-6.637-.68-9.68-1.74-4.385-5.409-7.868-9.835-9.34-4.079-1.356-8.359-1.073-12.209.809a16.123 16.123 0 00-8.18 9.352 16.09 16.09 0 002.778 15.242l.533.654-.81.814c-.446.447-.838.804-.871.793-.14-.047-1.217-1.42-1.792-2.286-1.455-2.189-2.454-4.819-2.857-7.523-.192-1.29-.19-4.02.005-5.269 1.1-7.082 5.902-12.713 12.742-14.944 1.165-.38 2.3-.604 4.124-.812.583-.066 3.363.034 4.106.149zm-3.219 7.893l-.216.186-.755 5.622-.755 5.622-.5.508c-.798.812-1.165 1.674-1.165 2.738a3.924 3.924 0 003.075 3.836c.571.128 1.624.06 2.18-.14 1.515-.546 2.568-2.061 2.568-3.696 0-1.064-.367-1.926-1.165-2.738l-.5-.508-.755-5.622-.755-5.622-.216-.186a.755.755 0 00-.52-.186.755.755 0 00-.52.186zm.82 8.711c.138 1.065.251 1.972.25 2.015-.001.044-.238.078-.55.078-.311 0-.548-.034-.549-.078-.006-.24.51-3.95.55-3.95.025 0 .16.87.299 1.935zm.752 3.886c1.029.504 1.517 1.668 1.182 2.82-.172.592-.825 1.277-1.406 1.475-.916.311-1.802.107-2.483-.574-.486-.486-.691-.973-.69-1.637.001-1.737 1.822-2.854 3.397-2.084zm12.368 3.097c3.44.876 5.607 4.325 4.893 7.787-.287 1.39-.901 2.49-1.95 3.492-2.594 2.478-6.569 2.473-9.195-.012-.871-.825-1.529-1.947-1.857-3.172-.234-.87-.237-2.404-.008-3.254.715-2.646 2.85-4.585 5.495-4.99.7-.108 1.881-.04 2.622.149zm-3.694 1.443c-.3.13-.417.329-.417.703 0 .228.165.528.865 1.575.8 1.196.863 1.318.84 1.621-.023.325-.026.328-.35.352-.304.022-.426-.041-1.622-.841-1.08-.722-1.343-.865-1.591-.865-.376 0-.609.162-.721.502-.158.479.014.714 1.002 1.367.478.317.855.6.836.632-.02.03-.405.299-.858.596-.95.624-1.132.87-.98 1.328.05.151.18.333.289.404.407.267.632.186 1.972-.706 1.178-.785 1.28-.837 1.648-.837h.391v.311c0 .266-.127.502-.86 1.608-.734 1.107-.86 1.343-.86 1.61 0 .54.528.897 1.026.69.174-.072.406-.347.833-.988.326-.49.616-.862.646-.828.03.033.303.434.606.89.61.916.84 1.087 1.29.958.325-.093.632-.534.573-.827-.023-.117-.413-.767-.866-1.446-.758-1.136-.824-1.264-.824-1.607v-.371h.372c.342 0 .471.066 1.606.823.68.453 1.33.843 1.447.867.293.058.733-.248.827-.575.129-.449-.042-.679-.959-1.289a28.214 28.214 0 01-.89-.605c-.033-.03.34-.321.829-.647.641-.427.916-.659.988-.833a.737.737 0 00-.691-1.027c-.266 0-.502.127-1.609.86-1.106.735-1.342.861-1.608.861h-.312v-.391c0-.368.052-.47.837-1.648.893-1.34.974-1.565.707-1.972a.887.887 0 00-.404-.29c-.458-.15-.705.031-1.328.981-.297.453-.566.839-.597.858-.03.019-.315-.357-.631-.836-.428-.647-.641-.898-.829-.977-.305-.127-.311-.127-.623.009z" fill="#003154"/></svg>