<svg width="17" height="18" fill="none" xmlns="http://www.w3.org/2000/svg"><path fill-rule="evenodd" clip-rule="evenodd" d="M2.962 8.41a.44.44 0 01.308-.119.465.465 0 01.309.12L8.5 12.98l4.922-4.57a.44.44 0 01.308-.12.466.466 0 01.309.12.38.38 0 010 .573l-5.23 4.855a.44.44 0 01-.309.12.465.465 0 01-.308-.12l-5.23-4.856a.38.38 0 010-.573z" fill="#D0D0D0"/><path fill-rule="evenodd" clip-rule="evenodd" d="M2.962 8.41a.44.44 0 01.308-.119.465.465 0 01.309.12L8.5 12.98l4.922-4.57a.44.44 0 01.308-.12.466.466 0 01.309.12.38.38 0 010 .573l-5.23 4.855a.44.44 0 01-.309.12.465.465 0 01-.308-.12l-5.23-4.856a.38.38 0 010-.573z" fill="#D0D0D0"/><path clip-rule="evenodd" d="M2.962 8.41a.44.44 0 01.308-.119.465.465 0 01.309.12L8.5 12.98l4.922-4.57a.44.44 0 01.308-.12.466.466 0 01.309.12.38.38 0 010 .573l-5.23 4.855a.44.44 0 01-.309.12.465.465 0 01-.308-.12l-5.23-4.856a.38.38 0 010-.573z" stroke="#D0D0D0" stroke-width=".5"/><path clip-rule="evenodd" d="M2.962 8.41a.44.44 0 01.308-.119.465.465 0 01.309.12L8.5 12.98l4.922-4.57a.44.44 0 01.308-.12.466.466 0 01.309.12.38.38 0 010 .573l-5.23 4.855a.44.44 0 01-.309.12.465.465 0 01-.308-.12l-5.23-4.856a.38.38 0 010-.573z" stroke="#D0D0D0" stroke-width=".5"/></svg>