<svg width="104" height="34" fill="none" xmlns="http://www.w3.org/2000/svg"><g clip-path="url(#clip0_1526_2774)"><path fill-rule="evenodd" clip-rule="evenodd" d="M41.6.635c.985.411 1.678 1.196 2.08 2.092.401.86.584 1.831.584 2.803 0 1.644-.62 3.25-1.898 4.222a5.41 5.41 0 01-1.86.896c-.694.15-1.497.262-2.227.262h-.766c-.073 0-.155-.01-.237-.019a2.18 2.18 0 00-.238-.018h-.109v3.661h-3.248V.374l.146-.038c.584-.112 1.241-.187 1.934-.261C36.455.037 37.331 0 38.024 0c.365 0 .766.037 1.167.075.438.037.876.112 1.278.187.401.112.766.224 1.13.373zm-3.978 7.323c.402.038.876.038 1.278-.037.51-.075 2.08-.336 2.08-2.317 0-2.071-1.29-2.361-1.687-2.45l-.065-.016a3.979 3.979 0 00-.985-.112c-.157 0-.313.011-.458.021a5.314 5.314 0 01-.345.017c-.146 0-.474.037-.474.037v4.82s.547.037.656.037zM0 29.18V.15h25.252v29.03l-12.626 4.745L0 29.18zM20.18 9.116a20.355 20.355 0 00-1.095-.336c-1.679-.41-3.284-.448-4.598-.112.51.374 1.058.972 1.496 1.756 1.168-.112 2.445.075 3.722.598.117.051.227.103.329.15.12.057.23.108.328.149l.766-1.756-.073-.038a4.816 4.816 0 00-.875-.41zM7.043 10.424h.11c.12 0 .266-.025.437-.056l.11-.019c.547-.074 1.24-.15 1.277-.15h.985c.657 0 1.277.225 1.533.337.401.15.766.374 1.058.673.292.261.51.598.657 1.008.146.374.219.822.219 1.27 0 .524-.073 1.01-.256 1.458-.182.411-.401.822-.73 1.12l-.109.113.002.008c.04.206.226 1.16.837 1.897.22-.149.438-.298.657-.485.547-.449.949-1.046 1.277-1.719.329-.672.475-1.494.475-2.391a5.86 5.86 0 00-.402-2.167 4.233 4.233 0 00-1.13-1.607 5.004 5.004 0 00-1.753-.971c-.583-.187-1.605-.411-2.48-.411-1.388 0-2.665.112-3.212.224h-.183c-.291 0-1.058.075-1.642.224l-.11.038v13.338h2.117v-3.699a15.26 15.26 0 002.08.448 9.263 9.263 0 01-.577-1.91l-.006-.032a14.85 14.85 0 01-1.18-.259c-.119-.03-.225-.057-.317-.078v-6.165c.037 0 .082-.009.128-.018a.65.65 0 01.128-.019zM21.2 21.147l.037-.037h.036v-5.866h-4.05L16.42 17l2.956-.037v2.914l-.073.075a.655.655 0 00-.065.037.668.668 0 01-.154.075c-.183.074-.438.15-.693.224a5.18 5.18 0 01-.803.15c-1.679.223-3.941-.113-5.182-1.794-1.131-1.495-1.35-3.886-.547-5.53a2.86 2.86 0 01.438-.71c-.475-.859-1.35-1.008-1.68-1.046-.838 1.196-1.35 2.653-1.35 4.073 0 2.989 1.46 5.38 3.905 6.463.913.411 2.007.598 3.139.598.948 0 1.934-.112 2.919-.41a8.035 8.035 0 001.131-.412l.17-.095.002-.001c.258-.145.487-.273.667-.427zm19.779 4.67l-1.168 2.653h3.211v2.055c-.146.075-.292.15-.474.187-.192.066-.412.102-.611.136l-.083.014a4.377 4.377 0 01-.693.074c-.12 0-.24.012-.35.022-.088.008-.168.016-.234.016-.584 0-1.13-.038-1.642-.15-.474-.112-.912-.261-1.277-.523-.547-.336-.985-.822-1.314-1.457-.328-.635-.474-1.383-.474-2.28 0-.747.11-1.419.328-2.017.22-.56.548-1.046.95-1.42.218-.186.437-.373.729-.523.255-.15.547-.261.84-.336.291-.075.62-.15.912-.187a7.552 7.552 0 012.882.224c.657.187 1.241.411 1.825.673l.182.075.95-2.915-.147-.074c-.766-.374-1.569-.598-2.445-.785a15.486 15.486 0 00-2.59-.224c-.475 0-.986.037-1.533.112a7.97 7.97 0 00-1.57.374 7.84 7.84 0 00-1.495.71 6.198 6.198 0 00-1.314 1.12c-.256.3-.511.636-.766.972-.22.373-.438.747-.62 1.195-.183.411-.293.897-.402 1.383-.11.486-.146 1.009-.146 1.569 0 1.158.182 2.204.51 3.101.33.897.84 1.681 1.533 2.354.402.374.803.71 1.277.971.475.262.95.486 1.46.636a10.95 10.95 0 003.065.448c.365 0 .73 0 1.168-.037.38-.033.758-.093 1.16-.157l.19-.03c.475-.112.95-.224 1.423-.411l.067-.026c.461-.182 1.014-.399 1.466-.684l.073-.038V25.93H40.98v-.113zm57.29-6.351c.402.112.767.224 1.132.373 1.022.412 1.679 1.159 2.08 2.055.401.822.584 1.831.584 2.803 0 1.644-.62 3.25-1.898 4.222a5.406 5.406 0 01-1.86.896c-.694.15-1.497.262-2.227.262h-.766a2.18 2.18 0 01-.237-.019 2.204 2.204 0 00-.237-.018h-.11v3.66h-3.247V19.578l.145-.037c.584-.113 1.241-.187 1.934-.262.694-.037 1.57-.075 2.263-.075.365 0 .766.038 1.168.075.438.037.875.112 1.277.187zm-2.846 7.697c.402.037.876.037 1.278-.038l.082-.017h.001c.58-.122 1.997-.417 1.997-2.3 0-2.07-1.29-2.36-1.687-2.45a3.975 3.975 0 00-1.05-.127c-.157 0-.313.01-.458.02a5.332 5.332 0 01-.345.017c-.146 0-.474.037-.474.037v4.82s.547.038.656.038zm-43.278-12.33c1.095 0 2.08-.187 2.956-.523.876-.374 1.605-.86 2.226-1.532.62-.635 1.058-1.457 1.386-2.354.329-.897.475-1.905.475-3.026 0-1.084-.146-2.093-.475-2.99-.328-.896-.766-1.68-1.386-2.353A6.82 6.82 0 0055.102.523C54.226.15 53.24 0 52.146 0A8.43 8.43 0 0049.3.486a6.445 6.445 0 00-2.226 1.457c-.62.635-1.095 1.42-1.423 2.354-.329.934-.511 1.98-.511 3.138s.182 2.205.51 3.139c.329.934.803 1.718 1.424 2.353a6.118 6.118 0 002.226 1.458 9.706 9.706 0 002.846.448zM48.57 7.36c0-.784.073-1.457.255-2.017.183-.56.402-1.009.73-1.383.328-.373.693-.635 1.131-.784.438-.187.95-.262 1.496-.262.62 0 1.168.112 1.606.337.438.224.84.523 1.131.934.292.373.511.859.657 1.42.146.56.22 1.158.22 1.793s-.074 1.233-.22 1.793a4.21 4.21 0 01-.657 1.42c-.292.374-.657.71-1.13.934-.439.224-.986.336-1.607.336-.547 0-1.058-.074-1.496-.261a3.447 3.447 0 01-1.13-.785c-.33-.374-.548-.822-.73-1.382-.183-.635-.256-1.308-.256-2.093zm15.91 4.185h4.16l-1.277 2.989h-6.13V.149h3.247v11.396zm7.408 2.989l1.24-2.952h5.401l1.24 2.952h3.467L77.106.149h-2.372l-6.13 14.385h3.284zm3.94-9.714l.475 1.42 1.095 2.652H74.26l1.094-2.615.475-1.457zm8.94-4.67h3.249v14.384h-3.248V.149zm9.671 8.78l1.57.186 3.977 5.418H104L99.621 8.93l-.474-.486.105-.04c.264-.1.545-.206.77-.371a4.33 4.33 0 00.986-.86 3.3 3.3 0 00.657-1.232 5.474 5.474 0 00.255-1.607c0-.785-.146-1.457-.474-2.017-.329-.56-.73-1.01-1.278-1.346a4.143 4.143 0 00-.912-.448 8.791 8.791 0 00-1.058-.299 10.38 10.38 0 00-1.131-.15c-.365-.037-.73-.037-1.095-.037-.292 0-.657 0-1.058.038-.37 0-.74.032-1.14.066l-.101.008c-.438.038-.84.075-1.24.113a8.668 8.668 0 00-1.095.149l-.146.037v14.086h3.247V8.93zm3.358-2.504c-.256.15-.548.262-.913.3-.365.074-.73.074-1.058.074h-1.387V3.325h.183c.146 0 .292 0 .438-.037h.51c.548 0 1.059 0 1.497.075a1.9 1.9 0 01.803.299c.218.149.364.298.51.56.11.224.183.486.183.71 0 .41-.073.71-.183.971a3.94 3.94 0 01-.584.523zM56.52 27.571l-.106.04.475.523 4.379 5.604h-4.014l-3.978-5.417-1.57-.187v5.604H48.46V19.615l.146-.037a8.68 8.68 0 011.095-.15h.002c.4-.037.801-.074 1.239-.112l.1-.008c.4-.035.77-.066 1.14-.066.402-.038.767-.038 1.059-.038.364 0 .73 0 1.094.038a9.99 9.99 0 011.132.15c.364.074.73.186 1.058.298.328.112.62.262.912.448.547.337.949.785 1.277 1.345.329.56.475 1.233.475 2.018 0 .598-.11 1.12-.256 1.607a3.301 3.301 0 01-.657 1.233c-.292.336-.62.635-.985.859-.225.165-.507.271-.77.37zm-.945-2.8a2.4 2.4 0 00.182-.971 1.82 1.82 0 00-.146-.673 1.504 1.504 0 00-.51-.56 1.899 1.899 0 00-.803-.299c-.438-.075-.949-.075-1.496-.075h-.511c-.146.038-.292.038-.438.038h-.183v3.474h1.387c.329 0 .694 0 1.058-.074.365-.038.657-.15.913-.3a1.96 1.96 0 00.547-.56zm17.48-3.586a6.822 6.822 0 00-2.227-1.532c-.875-.374-1.86-.523-2.955-.523a8.431 8.431 0 00-2.847.485 6.445 6.445 0 00-2.226 1.458c-.62.635-1.095 1.42-1.423 2.353-.328.934-.51 1.98-.51 3.139 0 1.158.182 2.204.51 3.138.328.934.803 1.719 1.423 2.354s1.35 1.121 2.226 1.457c.84.336 1.825.486 2.847.486 1.094 0 2.08-.187 2.955-.523.876-.374 1.606-.86 2.226-1.532.62-.672 1.058-1.457 1.387-2.354.328-.896.474-1.905.474-3.026 0-1.084-.146-2.092-.474-2.99-.328-.933-.766-1.755-1.387-2.39zm-1.57 5.343c0 .635-.073 1.232-.219 1.793a4.212 4.212 0 01-.657 1.42c-.292.373-.656.71-1.13.934-.439.224-.986.336-1.606.336-.548 0-1.059-.075-1.497-.261a3.447 3.447 0 01-1.13-.785c-.33-.374-.548-.822-.73-1.383-.183-.56-.256-1.233-.256-2.017 0-.785.073-1.457.255-2.018.183-.56.402-1.009.73-1.382a2.413 2.413 0 011.131-.785c.438-.187.95-.261 1.497-.261.62 0 1.167.112 1.605.336.438.224.84.523 1.131.934.292.374.511.86.657 1.42.146.485.22 1.083.22 1.718zm13.903 3.026c.11-.336.183-.747.183-1.233v-8.93h3.102v9.08c0 .933-.146 1.755-.438 2.428a4.081 4.081 0 01-1.168 1.718 4.984 4.984 0 01-1.788 1.01 8.383 8.383 0 01-2.19.298c-.912 0-1.751-.075-2.48-.299a5.399 5.399 0 01-1.898-.971 3.948 3.948 0 01-1.168-1.607 5.918 5.918 0 01-.401-2.204V19.39h3.247v8.93c0 .896.22 1.606.62 2.017.402.411 1.095.636 2.044.636.401 0 .766-.038 1.095-.15.292-.075.547-.224.766-.448.22-.225.365-.486.474-.822z" fill="#003154"/></g><defs><clipPath id="clip0_1526_2774"><path fill="#fff" d="M0 0h104v34H0z"/></clipPath></defs></svg>