<svg width="159" height="22" fill="none" xmlns="http://www.w3.org/2000/svg"><g clip-path="url(#clip0_1526_2794)"><path fill-rule="evenodd" clip-rule="evenodd" d="M24.484 8.918L28.213 0h-6.661c-3.31.044-7.164.177-10.683 1.457C2.7 4.415.732 9.404.23 11.435c-.88 3.709.838 7.638 4.105 9.36 2.89 1.501 6.2 1.325 8.463.927 2.974-.53 5.362-1.59 7.08-3.135a2.98 2.98 0 01.076-.07c.232-.208.9-.81.97-1.033l.336-1.28c-2.472.97-4.567 1.456-6.494 1.545-1.298.044-3.728-.089-5.069-1.766-2.136-2.605-.25-6.49 1.425-8.345 1.885-2.075 5.446-3.532 9.426-3.93l-2.179 5.21h6.116zm56.22 1.502c-1.048-.31-2.179-.31-3.268-.31H75.34l-1.508 3.577h3.31c-.629 2.252-1.802 3.576-3.687 4.062-1.76.441-3.31.265-3.31.265l6.326-15.806h-6.41s-5.236 12.847-5.822 14.481c-1.131 3.135 1.508 4.724 4.147 4.9l.752.049c1.302.084 1.302.084 2.85.084 6.075 0 11.48-4.37 11.521-7.903.042-1.722-1.089-2.914-2.806-3.4zm22.956 3.62c-.083-.883-.418-1.722-1.005-2.384-.67-.795-2.011-1.678-4.524-1.678h-1.76l-.763-.001c-2.764-.007-4.677-.011-6.484.84-2.64 1.236-4.943 3.576-4.65 6.887.126 1.28.838 2.473 1.885 3.135 1.09.663 2.514.972 3.728.972h2.606c2.734.007 4.473.011 6.317-.84 1.592-.75 3.142-1.898 3.98-3.576a5.835 5.835 0 00.67-3.355zm-6.577 2.252c-.418.662-1.047 1.192-1.717 1.457-1.006.441-2.095.53-3.184.53h-1.718v-.619c0-1.103.168-1.589.545-2.207.88-1.325 2.304-1.81 3.77-1.943l.105-.01c.378-.041.727-.078 1.11-.078h1.466s0 1.06-.041 1.501c.083.53-.084.971-.336 1.369zm32.634 5.342c-.586 0-1.131-.22-1.675-.662-.545-.442-.754-.928-.754-1.501 0-.133.042-.31.083-.486.126-.398 1.634-3.974 1.634-3.974l-6.912 5.034c-1.676 1.192-3.1 1.81-4.273 1.81-1.089 0-1.801-.177-2.22-.618-.252-.265-.377-.574-.377-1.016 0-.353.084-.75.293-1.192l1.718-4.018-8.588 6.623h-5.404l4.775-11.48h6.368l-2.388 5.652 6.116-4.106c1.467-1.06 2.975-1.545 4.902-1.545h2.89c-.125.33-.487 1.209-.713 1.757l-.167.406-1.549 3.709 6.325-4.371c1.425-1.06 3.016-1.59 4.734-1.59.964 0 2.472.089 2.891.133l-4.567 11.435h-3.142zm-90.403 0l4.818-11.48H34.32c-2.808-.007-4.97-.012-6.778.84-2.639 1.236-4.901 3.576-4.608 6.887.084.883.503 1.766 1.047 2.473.88 1.103 2.765 1.589 4.106 1.633 2.053 0 4.776-.795 6.032-2.472-.167.839.336 1.545.922 1.854.602.317 1.304.314 2.23.31h.325c-.041-.045 1.634-.045 1.718-.045zm-4.86-3.576c-3.225 1.06-4.985.441-5.32-.486-.293-.706-.042-1.369.335-1.943.964-1.412 2.388-1.986 4.944-1.986h1.885l-1.843 4.415zm17.847-3.09l5.907-4.813h6.325l-2.387 5.784h-5.991l.838-1.987-6.116 5.21-1.215 2.472h-6.368l4.65-11.48h6.326l-1.97 4.813zM159 10.154l-4.818 11.479c-.083 0-1.801 0-1.717.044l-.327.001c-.925.004-1.627.007-2.229-.31-.586-.309-1.089-1.015-.921-1.854-1.257 1.677-3.98 2.472-6.033 2.472-1.34-.044-3.225-.53-4.105-1.633-.545-.707-.964-1.59-1.048-2.473-.293-3.311 1.969-5.651 4.609-6.887 1.808-.852 3.969-.847 6.776-.84H159zm-14.997 7.417c.335.927 2.094 1.545 5.32.486l1.843-4.415h-1.885c-2.556 0-3.98.574-4.943 1.986-.377.574-.629 1.237-.335 1.943z" fill="#8F9090"/></g><defs><clipPath id="clip0_1526_2794"><path fill="#fff" d="M0 0h159v22H0z"/></clipPath></defs></svg>