<svg width="125" height="24" fill="none" xmlns="http://www.w3.org/2000/svg"><g clip-path="url(#clip0_1526_2809)"><path fill-rule="evenodd" clip-rule="evenodd" d="M17.244 24H0V0h17.277c3.825 0 6.911 3.067 6.911 6.867v10.266A6.93 6.93 0 0117.244 24zm-7.85-9.333h4.26c.637 0 1.14-.5 1.14-1.134v-3.1c0-.633-.503-1.133-1.14-1.133h-4.26v5.367zM33.446 0c-3.824 0-6.91 3.067-6.91 6.833V24h9.393v-2.867h5.401V24h9.393V0H33.447zm2.483 12.567V10.4c0-.6.503-1.1 1.107-1.1h4.26v3.267H35.93zM60.722 9.3L52.838 24h24.457v-9.3h-7.616L77.563 0H53.14v9.3h7.582zM78.1 24l7.884-14.7h-7.582V0h24.423l-7.884 14.7h7.615V24H78.1zm46.9 0v-9.3h-8.555V0h-11.473v24H125z" fill="#8F9090"/></g><defs><clipPath id="clip0_1526_2809"><path fill="#fff" d="M0 0h125v24H0z"/></clipPath></defs></svg>