<svg width="163" height="22" fill="none" xmlns="http://www.w3.org/2000/svg"><g clip-path="url(#clip0_1526_2822)"><path fill-rule="evenodd" clip-rule="evenodd" d="M24.079 11.042C24.079 5.27 27.915 0 36.485 0c8.489 0 12.57 5.27 12.57 11.042S44.974 22 36.485 22c-7.999 0-12.406-5.186-12.406-10.958zm13.467 9.201c1.878-.418 2.857-4.266 2.694-7.946-.245-6.525-2.775-10.206-4.49-10.54-2.121.836-2.693 4.684-2.53 8.197.164 6.023 2.286 10.038 4.326 10.29zM53.79.502h8.733v18.57H68.4v2.426H53.79V.502zm20.813 15.559h6.53l1.224 5.437h9.305L87.092.502H75.5l-4.653 20.996h2.53c.245-.753 1.225-5.437 1.225-5.437zm3.673-12.799l2.367 10.624h-5.632l2.367-10.624h.898zm35.669-2.76h11.019c.44 0 .899-.012 1.37-.024 2.585-.067 5.512-.143 7.445 1.697 1.306 1.255 1.796 3.011 1.796 4.768-.082 3.513-1.551 5.52-4 6.692l.327.67 4.571 7.11h-9.387l-3.265-7.362-1.143-.084v7.445h-8.733V.502zm8.733 11.878c.49.084 2.367.251 2.367.251s1.796-2.426 1.796-5.52c0-1.34 0-4.853-4.163-4.853V12.38zm-25.384 9.118h8.734V.502h-8.734v20.996zM11.101.502c5.142 0 10.12.502 10.12 6.274 0 7.445-4.815 9.118-9.467 9.118-1.143 0-2.204-.084-3.02-.251v5.855H0V.502h11.1zM8.734 13.719c.49.083 2.367.25 2.367.25s1.795-2.258 1.795-6.19c0-1.505 0-5.437-4.08-5.437V13.72h-.082zm148.308-7.11H163v8.783h-5.958v6.106h-8.571v-6.106h-5.958V6.608h5.958V.502h8.571v6.106z" fill="#8F9090"/></g><defs><clipPath id="clip0_1526_2822"><path fill="#fff" d="M0 0h163v22H0z"/></clipPath></defs></svg>