<svg width="131" height="26" fill="none" xmlns="http://www.w3.org/2000/svg"><path fill-rule="evenodd" clip-rule="evenodd" d="M2.836 25.122h2.469V8.827h4.538V6.552H5.307v-.374c0-3.837 3.303-3.903 4.038-3.903h.5V0h-.5C5.239 0 2.836 2.546 2.836 6.178v.374H0v2.275h2.836v16.295zm9.311 0h2.469v-11c0-3.767 2.836-5.33 5.171-5.464V6.147c-2.236-.07-4.238 1.087-5.24 3.089h-.067V6.555h-2.336v18.567h.003zM30 6.109c-5.406 0-9.546 4.211-9.546 9.743 0 5.534 4.171 9.71 9.546 9.71 5.372 0 9.546-4.176 9.546-9.71 0-5.532-4.14-9.743-9.546-9.743zm0 2.276c4.106 0 7.075 3.258 7.075 7.47 0 4.208-2.97 7.435-7.075 7.435s-7.074-3.225-7.074-7.436c0-4.21 2.971-7.47 7.074-7.47zm11.65 11.272c0 3.089 1.77 5.908 5.572 5.908 3.738 0 5.873-2.511 5.873-5.908 0-3.498-2.57-4.447-4.739-5.16-1.702-.544-3.57-1.223-3.57-3.36 0-1.562 1-2.75 2.736-2.75 1.535 0 2.67 1.122 2.635 2.784h2.469c.034-2.85-2.036-5.059-5.039-5.059-3.302 0-5.273 2.31-5.273 5.23 0 3.529 2.87 4.55 4.773 5.194 1.736.61 3.537 1.257 3.537 3.53 0 1.662-1.1 3.224-3.204 3.224-2.202 0-3.472-1.732-3.302-3.633h-2.469zm16.416 5.465h2.469V8.827h4.238V6.552h-4.238V0h-2.469v6.552h-3.803v2.275h3.803v16.295zm27.399-8.385c.034-4.786-2.469-10.625-9.38-10.625-6.206 0-9.51 5.16-9.51 9.742 0 5.569 4.138 9.71 9.51 9.71 4.14 0 7.477-2.479 8.944-6.483h-2.57c-1.134 2.546-3.503 4.211-6.373 4.211-3.837 0-6.642-2.85-6.942-6.552h16.32v-.003zm-16.318-2.275c.6-3.53 3.438-6.077 6.941-6.077 3.17 0 6.009 2.31 6.707 6.077H69.147zm35.007 5.227c-1.3 2.341-3.636 3.598-6.14 3.598-3.97 0-7.276-3.259-7.276-7.502 0-4.107 3.037-7.4 7.275-7.4.834 0 4.306.135 6.141 3.802h2.771c-1.436-3.667-4.671-6.078-8.91-6.078-6.373 0-9.743 5.261-9.743 9.71 0 4.856 3.503 9.743 9.744 9.743 5.005 0 7.642-3.123 8.875-5.873h-2.737zm15.252-13.58c-5.406 0-9.546 4.211-9.546 9.743 0 3.75 1.915 6.875 4.822 8.502-.351.139-.713.262-1.086.373 4.893 1.792 9.717 1.922 13.721-1.111 4.88-5.025 4.919-11.861.065-15.642a3.318 3.318 0 00-.367-.178c.365.602.678 1.233.931 1.888 1.363 3.532.969 7.724-2.597 11.354-.061-.06.117-.356.406-.837 1.049-1.744 3.567-5.932 1.536-10.265a11.119 11.119 0 00-1.23-2.32c-.36.005-.713.096-1.057.261-1.556-1.12-3.48-1.768-5.598-1.768zm6.495 3.768h.39l.135.39c-.373.952-1.9 3.07-3.772 4.206.678-.785 1.368-1.604 1.971-2.448a13.37 13.37 0 001.276-2.148zm-2.663-.383c-1.083-.706-2.387-1.11-3.832-1.11-4.105 0-7.074 3.26-7.074 7.47 0 3.4 1.935 6.157 4.841 7.093 1.696-1.336 2.94-3.332 3.599-6.318.402-2.95 1.303-5.505 2.466-7.135zm6.605 3.353a8.218 8.218 0 01-.766-.798l.049.84.105.047c.411.183.427.19.985.224-.089-.073-.133-.107-.165-.132a2.594 2.594 0 01-.208-.18zm.481 2.42c-.337-.306-.783-.71-1-1.136l-.153.726c.427.281.688.427 1.269.584.011.003.016-.01.022-.023l.009-.017-.147-.135zm-.887 1.354a4.502 4.502 0 01-.553-.81l-.219.632c.576.58.85.742 1.551.925a5.702 5.702 0 01-.779-.747zm-4.304 3.156c.196-.211.368-.397.524-.534l.284-1.18c-.367.516-1.385 1.537-1.967 2.12l-.238.24c-.485.49-.983.968-1.596 1.427 1.438-.393 2.345-1.373 2.993-2.073zm-3.35.158c2.492-.769 4.408-3.07 5.021-3.853l.141-1.299c-.696.886-1.966 2.373-2.732 3.134a16.51 16.51 0 01-2.43 2.018zm.634-2.537c2.56-1.461 4.144-3.83 4.653-4.744l-.198-1.005c-.48.864-1.468 2.315-2.127 3.192a18.215 18.215 0 01-2.328 2.557z" fill="#8F9090"/></svg>