<svg width="127" height="32" fill="none" xmlns="http://www.w3.org/2000/svg"><path fill-rule="evenodd" clip-rule="evenodd" d="M25.37 0H0v23.884h1.683L4.508 6.786l14.266-5.01 4.86 14.368-1.279 7.74h3.016V0zm56.314 5.396h4.147c2.81 0 4.908.538 6.294 1.615 1.39 1.07 2.083 2.71 2.083 4.901 0 2.222-.663 3.831-1.99 4.839-1.327 1.003-3.455 1.507-6.387 1.507h-4.147V5.396zM68.15 18.39l2.122 4.858c4.85 0 9.702.004 14.553.008h.011c6.07.004 12.143.01 18.218.006l2.113-4.628h12.392l2.02 4.628h7.333L115.754.44h-7.699l-7.323 14.1c.136-.783.2-1.61.2-2.476 0-2.29-.444-4.295-1.332-6.022-.888-1.727-2.157-3.053-3.81-3.987-1.065-.597-2.26-1.028-3.602-1.292C90.847.5 89.056.367 86.817.367h-11.53v18.106L66.35.196h-7.7L51.44 14.08a3.192 3.192 0 00-1.48-1.551c-.804-.411-1.985-.626-3.556-.646 2.088-.352 3.645-1.008 4.679-1.971 1.04-.964 1.556-2.231 1.556-3.816 0-1.062-.253-2.011-.76-2.838-.503-.827-1.225-1.467-2.152-1.922-.713-.348-1.542-.592-2.493-.744-.947-.152-2.338-.225-4.162-.225H30.62v22.88h6.294v-8.732h3.84c1.99 0 3.245.191 3.767.573.522.386.873 1.198 1.059 2.436l.434 3.038.02.173c.098.817.216 1.805.58 2.513h6.913l2.225-4.858H68.15zm47.321-4.159h-8.182l4.293-8.771 3.889 8.771zm-49.405-.25h-8.182l4.294-8.77 3.888 8.77zm-29.152-3.85V4.795l4.04-.005c2.015 0 3.347.191 4.006.573.658.386.99 1.066.99 2.035 0 1.008-.356 1.712-1.068 2.118-.712.411-2.02.617-3.928.617h-4.04zm40.989 18.87c-.156.166-.24.42-.24.744 0 .244.06.577.23.773.078.098.259.244.585.244a.674.674 0 00.479-.166c.283-.255.292-.68.292-.87 0-.23-.034-.524-.224-.735-.166-.18-.356-.215-.542-.215-.17.005-.395.024-.58.225zm1.673-1.262c-.278.132-.473.176-.976.26h-.01a2 2 0 00-.463.122.96.96 0 00-.346.273 1.3 1.3 0 00-.244.622h.01c.229-.504.692-.592 1.024-.592.234 0 .517.039.766.274.186.171.376.489.376 1.022 0 .387-.107.744-.303.984-.19.234-.492.41-.975.41-.235 0-.547-.053-.82-.327-.366-.372-.42-.92-.42-1.282 0-.886.254-1.292.43-1.482.292-.314.678-.387.97-.44l.26-.05c.372-.07.506-.096.716-.186v.392h.005zM6.27 28.937a1.1 1.1 0 01.126.495v.005H4.918a.926.926 0 01.185-.534.753.753 0 01.59-.279.64.64 0 01.577.314zm.107 1.977c.224-.162.366-.357.439-.592l-.395-.083a.856.856 0 01-.166.288c-.093.108-.268.235-.561.235-.332 0-.576-.151-.708-.474a1.353 1.353 0 01-.087-.529h1.966v-.097c0-.436-.161-1.375-1.171-1.375-.854 0-1.259.71-1.259 1.433 0 .382.088.724.327.998.234.27.537.397.917.397a1.2 1.2 0 00.698-.201zm-4.07-2.236v-.332H.206v.332h.849v2.383h.405v-2.383h.849zm7.25-.332l.567.939.59-.94h.405l-.785 1.229.927 1.487h-.488l-.678-1.096-.708 1.096h-.405l.903-1.4-.815-1.316h.488zm4.47 1.134v-1.134h-.405v2.715h.405v-1.248h1.254v1.248h.405v-2.715h-.405v1.134h-1.254zm6.187.226c0-.89-.43-1.062-.757-1.062-.322 0-.756.171-.756 1.062 0 .89.43 1.061.756 1.061.327-.005.757-.171.757-1.061zm-.757-1.414c.703 0 1.22.523 1.22 1.409 0 .89-.522 1.409-1.22 1.409-.702 0-1.22-.524-1.22-1.41 0-.885.523-1.408 1.22-1.408zm5.626 2.769V28.34h-1.63l-.005.303c-.029 1.365-.087 1.634-.166 1.776a.54.54 0 01-.41.284h-.043v.352h.02c.185 0 .604-.04.785-.568.083-.24.127-.601.17-1.815h.874v2.388h.405zm4.527-1.355c0-.89-.429-1.062-.756-1.062-.322 0-.756.171-.756 1.062 0 .89.43 1.061.756 1.061.327-.005.756-.171.756-1.061zm-.75-1.414c.702 0 1.219.523 1.219 1.409 0 .89-.522 1.409-1.22 1.409-.702 0-1.22-.524-1.22-1.41-.004-.885.518-1.408 1.22-1.408zm5.41.386v-.332h-1.64v2.715h.405v-2.383h1.235zm2.8-.332v1.629c0 .12-.002.159-.007.234l-.007.137c.073-.167.15-.274.223-.378l.03-.042 1.015-1.346v-.234h.405v2.715h-.405v-1.605c0-.098.005-.26.02-.386-.02.049-.059.136-.244.376l-1.03 1.35v.26h-.404V28.34h.405v.005zm4.694.748v-.748h-.405v.684c0 .309 0 .612.24.788.19.137.463.137.638.137.244 0 .396-.015.65-.044v1.145h.404V28.34h-.405v1.247c-.16.02-.4.04-.585.04-.186 0-.366 0-.464-.118-.08-.101-.076-.249-.074-.363l.001-.053zm6.045.338a1.107 1.107 0 00-.127-.494.637.637 0 00-.57-.314.753.753 0 00-.59.28.926.926 0 00-.186.532h1.473v-.004zm.42.89c-.073.235-.215.43-.44.592a1.2 1.2 0 01-.697.2c-.38 0-.683-.127-.917-.396-.24-.274-.327-.616-.327-.998 0-.724.405-1.433 1.259-1.433 1.01 0 1.17.94 1.17 1.375v.097h-1.966c-.005.181.025.372.088.529.132.323.376.474.708.474.292 0 .468-.127.56-.235a.857.857 0 00.167-.288l.395.083zm4.015-1.438c.068.102.127.259.147.41l.39-.063a1.315 1.315 0 00-.278-.621c-.19-.215-.44-.308-.737-.308-.434 0-.707.186-.893.44-.205.284-.283.611-.283.973 0 .46.142.896.405 1.14.156.142.4.264.742.264a.985.985 0 00.732-.288c.15-.162.268-.401.307-.66l-.38-.07a.914.914 0 01-.176.441.556.556 0 01-.474.225.597.597 0 01-.517-.274c-.034-.044-.175-.264-.175-.778 0-.22.029-.528.175-.768a.585.585 0 01.522-.303c.264 0 .42.132.493.24zm3.796.596c.356 0 .537-.073.654-.577l.013-.058c.03-.13.063-.275.148-.372.117-.137.288-.142.37-.142.04 0 .076.004.115.008l.012.002v.318c-.016-.004-.037-.002-.057-.001h-.026c-.058.005-.121.015-.17.079-.046.055-.07.179-.081.234l-.002.01-.04.191c-.058.299-.228.43-.409.46v.01c.258.02.361.196.424.367.048.133.084.252.114.353.033.115.06.206.091.268.05.098.098.113.2.113.035 0 .064 0 .098-.005v.323c-.059.01-.117.01-.176.01-.423 0-.48-.182-.578-.496l-.007-.023-.066-.21a1.566 1.566 0 00-.115-.314c-.107-.185-.263-.23-.483-.23h-.395v1.253h-.405v-2.715h.405v1.135h.366v.01zm4.874-.836c.327 0 .756.171.756 1.062 0 .89-.429 1.056-.756 1.061-.327 0-.756-.171-.756-1.061 0-.89.434-1.062.756-1.062zm1.225 1.057c0-.886-.518-1.41-1.22-1.41-.703 0-1.22.524-1.22 1.41 0 .885.517 1.409 1.22 1.409.698 0 1.22-.519 1.22-1.41zm4.303-.27a1.107 1.107 0 00-.127-.494.637.637 0 00-.57-.313.753.753 0 00-.591.28.926.926 0 00-.185.532h1.473v-.004zm.42.891a1.13 1.13 0 01-.44.592 1.2 1.2 0 01-.697.2c-.38 0-.683-.127-.917-.396-.24-.274-.327-.616-.327-.998 0-.724.405-1.433 1.258-1.433 1.01 0 1.171.94 1.171 1.375v.097h-1.966c-.005.181.025.372.088.529.132.323.376.474.707.474.293 0 .469-.127.561-.235a.857.857 0 00.166-.288l.396.083zm6.723-1.678c.327 0 .756.171.756 1.062 0 .89-.43 1.056-.756 1.061-.322 0-.751-.171-.751-1.061 0-.89.429-1.062.75-1.062zm1.224 1.057c0-.886-.517-1.41-1.22-1.41-.702 0-1.224.524-1.22 1.41 0 .885.518 1.409 1.22 1.409.698 0 1.22-.519 1.22-1.41zm8.46-1.057c.328 0 .757.171.757 1.062 0 .89-.43 1.056-.756 1.061-.322 0-.752-.171-.752-1.061 0-.89.43-1.062.752-1.062zm1.225 1.057c0-.886-.517-1.41-1.22-1.41-.702 0-1.224.524-1.22 1.41 0 .885.518 1.409 1.22 1.409.698 0 1.22-.519 1.22-1.41zm2.957.288c0 .137.02.357.19.548.151.167.347.23.517.23a.614.614 0 00.532-.318c.127-.21.166-.504.166-.748 0-.455-.112-.67-.161-.744a.596.596 0 00-.532-.303.637.637 0 00-.488.215.805.805 0 00-.224.558v.562zm-.405 1.957v-3.6h.37v.508l.006-.005c.107-.254.36-.557.805-.557.336 0 .58.122.746.313.234.26.342.69.342 1.081 0 .362-.088.758-.288 1.023a.957.957 0 01-.8.406c-.43 0-.654-.23-.766-.48h-.015v1.311h-.4zm5.362-.142c.156-.146.23-.318.288-.484l1.068-2.97h-.37l-.727 2.09-.703-2.09h-.468l.951 2.667-.034.088c-.083.25-.151.391-.254.474-.102.088-.205.093-.302.093-.108 0-.18-.01-.293-.039v.313c.107.04.234.054.341.054a.69.69 0 00.503-.196zm4.24-2.984c-.015.401-.064 1.062-.24 1.526a4.702 4.702 0 01-.17.382h1.244v-2.055h-.83l-.004.147zm1.24-.47v2.383h.277v1.061h-.37v-.728h-1.801v.729h-.37v-1.062h.2c.092-.132.18-.294.253-.484.195-.5.22-1.033.234-1.654l.005-.245h1.571zm3.751.294c.327 0 .756.171.756 1.062-.005.89-.434 1.056-.756 1.061-.322 0-.751-.171-.751-1.061 0-.89.429-1.062.751-1.062zm1.22 1.057c0-.886-.517-1.41-1.22-1.41s-1.22.524-1.22 1.41c0 .885.517 1.409 1.22 1.409.698 0 1.22-.519 1.22-1.41zm2.961 1.032h.849c.195 0 .342-.054.425-.132a.459.459 0 00.127-.328.426.426 0 00-.166-.347c-.132-.103-.322-.113-.425-.113h-.81v.92zm.005-1.253h.752c.126 0 .292-.01.409-.137a.451.451 0 00.108-.308.313.313 0 00-.117-.259c-.113-.098-.239-.098-.361-.098h-.791v.802zm.791-1.134c.219 0 .448.01.629.117a.572.572 0 01.288.523.591.591 0 01-.181.455.713.713 0 01-.351.172v.01a.825.825 0 01.503.215c.053.053.18.2.18.464a.75.75 0 01-.283.602c-.205.162-.439.166-.659.166h-1.332v-2.715h1.206v-.01zm4.205 1.502c.151-.079.395-.133.82-.133h.341v.133c0 .19-.078.44-.214.611a.848.848 0 01-.644.303.651.651 0 01-.386-.102.436.436 0 01-.195-.362c0-.137.054-.333.278-.45zm.503-1.551c-.591 0-1.03.156-1.147.738l.386.064c.063-.44.531-.475.756-.475.19 0 .424.01.561.196.098.127.107.308.107.45v.113h-.351c-.41 0-.839.005-1.166.23a.789.789 0 00-.366.685c0 .283.127.47.244.577.132.122.346.24.693.24.639 0 .873-.402.946-.558.005.132.02.308.049.504h.425a2.506 2.506 0 01-.069-.568v-1.042c0-.352-.005-.724-.297-.959-.239-.19-.591-.195-.771-.195zm4.201.049v1.134h1.253v-1.134h.401v2.715h-.401v-1.248h-1.253v1.248h-.405v-2.715h.405zm4.83 1.629V28.34h-.405v2.715h.405v-.26l1.029-1.35c.186-.24.225-.328.244-.376a3.967 3.967 0 00-.019.386v1.605h.405v-2.715h-.405v.234l-1.015 1.346-.03.042c-.074.104-.151.21-.224.378l.008-.137c.005-.075.007-.113.007-.234zm6.177-.543a1.11 1.11 0 00-.127-.494.64.64 0 00-.576-.314.753.753 0 00-.59.28.922.922 0 00-.186.532h1.479v-.004zm.419.89c-.073.235-.214.43-.439.592-.21.142-.434.2-.698.2-.38 0-.683-.127-.917-.396-.239-.274-.327-.616-.327-.998 0-.724.405-1.433 1.259-1.433 1.01 0 1.171.94 1.171 1.375v.097h-1.966a1.34 1.34 0 00.088.529c.131.323.375.474.707.474.293 0 .468-.127.561-.235a.857.857 0 00.166-.288l.395.083zM3.635 23.884L5.83 10.597l2.933 8.448-.8 4.839H3.634zm13.47-5.48l-.907 5.48h4.206l1.161-7.035-4.46 1.555zm-7.186 5.48l.522-3.156 4.591-1.6-.785 4.756H9.919z" fill="#8F9090"/></svg>