<svg width="200" height="32" fill="none" xmlns="http://www.w3.org/2000/svg"><g clip-path="url(#clip0_3553_211)"><path fill-rule="evenodd" clip-rule="evenodd" d="M53.542.003C40.945.003 35.33 7.64 35.33 16.056c0 8.396 6.472 15.94 18.212 15.94 12.433 0 18.357-7.543 18.357-15.94C71.9 7.64 65.975.003 53.542.003zm5.45 17.888c.22 5.45-1.166 10.955-3.955 11.585-2.954-.408-6.09-6.191-6.417-14.996-.2-5.116.674-10.807 3.755-11.974 2.589.482 6.271 5.913 6.617 15.385zM91.606.745h-12.78v30.51h21.402v-3.522l-8.623.019V.745zM118.86 23.34h-9.607s-1.477 6.803-1.751 7.915h-3.718l6.818-30.51h16.953l6.727 30.51h-13.654l-1.768-7.915zm-.693-3.15L114.72 4.766h-1.312l-3.446 15.422h8.204zM183.137.744h-16.115v30.51h12.779V20.45l1.714.166 4.721 10.64H200l-6.654-10.343-.529-.964c3.537-1.687 5.724-4.67 5.834-9.768.073-2.558-.693-5.19-2.571-6.952-2.883-2.71-7.176-2.607-10.986-2.515-.671.016-1.326.032-1.957.032zm.146 17.535s-2.771-.185-3.464-.315V3.21c6.089 0 6.089 5.134 6.089 7.025 0 4.579-2.625 8.045-2.625 8.045zm-27.929 12.975h-12.779V.745h12.779v30.51zM31.118 9.92c0-8.508-7.346-9.175-14.875-9.175H0v30.51h12.797V22.71c1.222.26 2.808.408 4.467.408 6.854 0 13.854-2.373 13.854-13.198zM16.243 20.208s-2.68-.149-3.446-.315V3.21c6.034 0 6.034 5.802 6.034 7.952 0 5.765-2.588 9.046-2.588 9.046z" fill="#fff"/></g><defs><clipPath id="clip0_3553_211"><path fill="#fff" d="M0 0h200v32H0z"/></clipPath></defs></svg>