<svg width="202" height="32" fill="none" xmlns="http://www.w3.org/2000/svg"><g clip-path="url(#clip0_3503_70)"><path fill-rule="evenodd" clip-rule="evenodd" d="M53.97.003c-12.697 0-18.357 7.637-18.357 16.053 0 8.396 6.523 15.94 18.357 15.94 12.532 0 18.505-7.543 18.505-15.94C72.475 7.64 66.502.003 53.97.003zm5.495 17.888c.22 5.45-1.177 10.955-3.988 11.585-2.977-.408-6.137-6.191-6.468-14.996-.202-5.116.68-10.807 3.785-11.974 2.61.482 6.321 5.913 6.67 15.385zM92.338.745H79.457v30.51h21.573v-3.522l-8.692.019V.745zM119.81 23.34h-9.684s-1.489 6.803-1.765 7.915h-3.748l6.872-30.51h17.09l6.78 30.51h-13.763l-1.782-7.915zm-.699-3.15l-3.473-15.423h-1.323l-3.473 15.422h8.269zM184.602.744h-16.244v30.51h12.881V20.45l1.728.166 4.759 10.64H201.6l-6.707-10.343-.533-.964c3.565-1.687 5.77-4.67 5.88-9.768.073-2.558-.698-5.19-2.591-6.952-2.906-2.71-7.234-2.607-11.074-2.515-.676.016-1.337.032-1.973.032zm.147 17.535s-2.793-.185-3.491-.315V3.21c6.137 0 6.137 5.134 6.137 7.025 0 4.579-2.646 8.045-2.646 8.045zm-28.152 12.975h-12.881V.745h12.881v30.51zM31.367 9.92c0-8.508-7.405-9.175-14.994-9.175H0v30.51h12.9V22.71c1.23.26 2.83.408 4.502.408 6.91 0 13.965-2.373 13.965-13.198zM16.373 20.208s-2.702-.149-3.473-.315V3.21c6.082 0 6.082 5.802 6.082 7.952 0 5.765-2.61 9.046-2.61 9.046z" fill="#003154"/></g><defs><clipPath id="clip0_3503_70"><path fill="#fff" d="M0 0h201.6v32H0z"/></clipPath></defs></svg>